<svg xmlns="http://www.w3.org/2000/svg" xmlns:xlink="http://www.w3.org/1999/xlink" version="1.1" x="0px" y="0px" width="1600px" height="450px" viewBox="0 0 1800 520" preserveAspectRatio="none" xml:space="preserve">

    <!-- N -->
    <!-- 1-1 --><path d="M35 0 Q20 0 12 12 H216 Q208 2 190 0 Z" />
    <!-- 1-2 --><path d="M426 0 Q420 0 420 12 H472 Q472 0 466 0 Z" />

    <!-- 2-1 --><path d="M10 20 Q6 20 2 32 H228 L222 20 Z" />
    <!-- 2-2 --><rect x="420" y="20" width="52" height="12" />

    <!-- 3-1 --><path d="M0 40 L0 56 L242 56 L234 40 Z" />
    <!-- 3-2 --><rect x="420" y="40" width="52" height="16" />

    <!-- 4-1 --><rect x="0" y="64" width="172" height="20" />
    <!-- 4-2 --><polygon points="180,64 189,84 253,84 244,64" />
    <!-- 4-3 --><rect x="420" y="64" width="52" height="20" />

    <!-- 5-1 --><rect x="0" y="92" width="172" height="24" />
    <!-- 5-2 --><polygon points="192,92 203,116 267,116 256,92" />
    <!-- 5-3 --><rect x="420" y="92" width="52" height="24" />

    <!-- 6-1 --><rect x="0" y="124" width="172" height="28" />
    <!-- 6-2 --><polygon points="206,124 218,152 282,152 270,124" />
    <!-- 6-3 --><rect x="420" y="124" width="52" height="28" />

    <!-- 7-1 --><rect x="0" y="160" width="172" height="32" />
    <!-- 7-2 --><polygon points="222,160 236,192 300,192 286,160" />
    <!-- 7-3 --><rect x="420" y="160" width="52" height="32" />

    <!-- 8-1 --><rect x="0" y="200" width="172" height="36" />
    <!-- 8-2 --><polygon points="240,200 255,236 319,236 304,200" />
    <!-- 8-3 --><rect x="420" y="200" width="52" height="36" />

    <!-- 9-1 --><rect x="0" y="244" width="172" height="40" />
    <!-- 9-2 --><polygon points="259,244 276,284 340,284 322,243" />
    <!-- 9-3 --><rect x="420" y="244" width="52" height="40" />

    <!-- 10-1 --><rect x="0" y="292" width="172" height="44" />
    <!-- 10-2 --><polygon points="280,292 299,336 362,336 343,292" />
    <!-- 10-3 --><rect x="420" y="292" width="52" height="44" />

    <!-- 11-1 --><rect x="0" y="344" width="172" height="48" />
    <!-- 11-2 --><polygon points="302,344 323,392 386,392 365,344" />
    <!-- 11-3 --><rect x="420" y="344" width="52" height="48" />

    <!-- 12-1 --><rect x="0" y="400" width="172" height="52" />
    <!-- 12-2 --><polygon points="326,400 349,452 412,452 390,400" />
    <!-- 12-3 --><rect x="420" y="400" width="52" height="52" />

    <!-- 13-1 --><path d="M0 460 V484 Q0 516 32 516 H140 Q172 516 172 484 V460 Z" />
    <!-- 13-2 --><path d="M351 460 Q373 516 400 516 H460 Q472 516 472 504 V460 Z" />
    <!-- /N -->


    <!-- O -->
    <!-- 1-1 --><path d="M535 0 Q520 0 512 12 H960 Q952 0 937 0 Z" />

    <!-- 2-1 --><path d="M510 20 Q506 20 502 32 H970 Q968 20 962 20 Z" />

    <!-- 3-1 --><rect x="500" y="40" width="472" height="16" />

    <!-- 4-1 --><rect x="500" y="64" width="172" height="20" />
    <!-- 4-2 --><rect x="920" y="64" width="52" height="20" />

    <!-- 5-1 --><rect x="500" y="92" width="172" height="24" />
    <!-- 5-2 --><rect x="920" y="92" width="52" height="24" />

    <!-- 6-1 --><rect x="500" y="124" width="172" height="28" />
    <!-- 6-2 --><rect x="920" y="124" width="52" height="28" />

    <!-- 7-1 --><rect x="500" y="160" width="172" height="32" />
    <!-- 7-2 --><rect x="920" y="160" width="52" height="32" />

    <!-- 8-1 --><rect x="500" y="200" width="172" height="36" />
    <!-- 8-2 --><rect x="920" y="200" width="52" height="36" />

    <!-- 9-1 --><rect x="500" y="244" width="172" height="40" />
    <!-- 9-2 --><rect x="920" y="244" width="52" height="40" />

    <!-- 10-1 --><rect x="500" y="292" width="172" height="44" />
    <!-- 10-2 --><rect x="920" y="292" width="52" height="44" />

    <!-- 11-1 --><rect x="500" y="344" width="172" height="48" />
    <!-- 11-2 --><rect x="920" y="344" width="52" height="48" />

    <!-- 12-1 --><rect x="500" y="400" width="172" height="52" />
    <!-- 12-2 --><rect x="920" y="400" width="52" height="52" />

    <!-- 13-1 --><path d="M500 460 V484 Q500 516 532 516 H940 Q972 516 972 484 V460 Z" />
    <!-- /O -->


    <!-- V -->
    <!-- 1-1 --><path d="M1007 0 Q987 0 984 12 H1147 Q1142 2 1127 0 Z" />
    <!-- 1-2 --><path d="M1427 0 Q1421 0 1417 12 H1469.5 Q1472 2 1463 0 Z" />

    <!-- 2-1 --><polygon points="984,20 986.5,32 1151.5,32 1149,20" />
    <!-- 2-2 --><polygon points="1415,20 1410.5,32 1462.5,32 1467,20" />

    <!-- 3-1 --><polygon points="988.5,40 992,56 1156.5,56 1153.5,40" />
    <!-- 3-2 --><polygon points="1408,40 1402,56 1453.5,56 1459,40" />

    <!-- 4-1 --><polygon points="993.5,64 998,84 1162.5,84 1158,64" />
    <!-- 4-2 --><polygon points="1399,64 1391.5,84 1443,84 1450.5,64" />

    <!-- 5-1 --><polygon points="999.5,92 1004.5,116 1169,116 1164,92" />
    <!-- 5-2 --><polygon points="1388.5,92 1380,116 1431,116 1440,92" />

    <!-- 6-1 --><polygon points="1006.5,124 1012.5,152 1177,152 1171,124" />
    <!-- 6-2 --><polygon points="1376.5,124 1366.5,152 1417.5,152 1428,124" />

    <!-- 7-1 --><polygon points="1014,160 1020.5,192 1185,192 1178.5,160" />
    <!-- 7-2 --><polygon points="1363,160 1351.5,192 1402.5,192 1414.5,160" />

    <!-- 8-1 --><polygon points="1022.5,200 1030,236 1194.5,236 1186.5,200" />
    <!-- 8-2 --><polygon points="1348.5,200 1335,236 1386,236 1399.5,200" />

    <!-- 9-1 --><polygon points="1031.5,244 1040,284 1204.5,284 1196,244" />
    <!-- 9-2 --><polygon points="1332,244 1317,284 1368.5,284 1383,244" />

    <!-- 10-1 --><polygon points="1042,292 1051,336 1215,336 1206,292" />
    <!-- 10-2 --><polygon points="1314,292 1298,336 1349,336 1365.5,292" />

    <!-- 11-1 --><polygon points="1053,344 1063,392 1227,392 1217,344" />
    <!-- 11-2 --><polygon points="1294.5,344 1277,392 1328,392 1346,344" />

    <!-- 12-1 --><polygon points="1064.5,400 1075.5,452 1240,452 1229,400" />
    <!-- 12-2 --><polygon points="1274,400 1254.5,452 1305.5,452 1325,400" />

    <!-- 13-1 --><path d="M1077 460 Q1090 516 1124 516 H1252 Q1285 516 1304 460 Z" />
    <!-- /V -->


    <!-- A -->
    <!-- 1-1 --><path d="M1522 0 Q1511 0 1506 12 H1701 Q1695 0 1678 0 Z" />

    <!-- 2-1 --><path d="M1503.5 20 L1499 32 H1710 Q1707.5 22 1705 20 Z" />

    <!-- 3-1 --><polygon points="1496,40 1490,56 1714.5,56 1711.5,40" />

    <!-- 4-1 --><polygon points="1487,64 1479.5,84 1531,84 1538.5,64" />
    <!-- 4-2 --><polygon points="1547.5,64 1551.5,84, 1720,84, 1716.5,64" />

    <!-- 5-1 --><polygon points="1476.5,92 1468,116 1519,116 1528,92" />
    <!-- 5-2 --><polygon points="1553.5,92 1558.5,116, 1726.5,116, 1722,92" />

    <!-- 6-1 --><polygon points="1464.5,124 1454.5,152 1505.5,152 1516,124" />
    <!-- 6-2 --><polygon points="1560,124 1566,152, 1733.5,152, 1728,124" />

    <!-- 7-1 --><polygon points="1451,160 1439.5,192 1490.5,192 1502.5,160" />
    <!-- 7-2 --><polygon points="1567.5,160 1574,192, 1741.5,192, 1735.5,160" />

    <!-- 8-1 --><polygon points="1436.5,200 1423,236 1474,236 1487.5,200" />
    <!-- 8-2 --><polygon points="1576,200 1583.5,236, 1750,236, 1743,200" />

    <!-- 9-1 --><polygon points="1420,244 1405,284 1456.5,284 1471,244" />
    <!-- 9-2 --><polygon points="1585,244 1593.5,284, 1759.5,284, 1751.5,244" />

    <!-- 10-1 --><polygon points="1402,292 1386,336 1437,336 1453.5,292" />
    <!-- 10-2 --><polygon points="1487.5,292 1471,336, 1769.6,336, 1761,292" />

    <!-- 11-1 --><polygon points="1382.5,344 1365,392 1416,392 1434,344" />
    <!-- 11-2 --><polygon points="1606,344 1616,392, 1780.5,392, 1771.3,344" />

    <!-- 12-1 --><polygon points="1362,400 1342.5,452 1393.5,452 1413,400" />
    <!-- 12-2 --><polygon points="1617.5,400 1628.5,452, 1792.5,452, 1782.5,400" />

    <!-- 13-1 --><path d="M1339.5 460 L1324.5 500 Q1318 516 1329 516 H1358 Q1370 516 1375.5 500 L1390.5 460 Z" />
    <!-- 13-2 --><path d="M1630 460 L1634.5 480 Q1645 516 1680 516 L1770 516 Q1806 516 1798 480 L1794 460 Z" />
    <!-- /A -->

</svg>
